<svg width="224" height="48" viewBox="0 0 224 48" fill="none" xmlns="http://www.w3.org/2000/svg">
<g clip-path="url(#clip0_3_493)">
<path d="M223.418 21.5778V17.6483H218.539V11.5401L218.375 11.5903L213.792 12.9927L213.702 13.0202V17.6483H206.468V15.0703C206.468 13.8698 206.736 12.9508 207.266 12.3386C207.791 11.7329 208.543 11.4253 209.501 11.4253C210.19 11.4253 210.903 11.5876 211.622 11.9075L211.801 11.9878V7.85019L211.717 7.81964C211.047 7.57833 210.136 7.45746 209.007 7.45746C207.583 7.45746 206.29 7.76684 205.162 8.3808C204.051 8.97856 203.135 9.8839 202.525 10.9885C201.905 12.103 201.591 13.3898 201.591 14.8141V17.6487H198.193V21.5782H201.591V38.1308H206.468V21.5778H213.702V32.0967C213.702 36.4289 215.745 38.6247 219.775 38.6247C220.471 38.6207 221.166 38.5434 221.846 38.3943C222.57 38.2386 223.063 38.0828 223.354 37.9165L223.418 37.8785V33.9129L223.22 34.0442C222.955 34.2209 222.626 34.365 222.239 34.4719C221.851 34.5809 221.527 34.6359 221.276 34.6359C220.331 34.6359 219.633 34.3815 219.199 33.8793C218.761 33.3731 218.539 32.4868 218.539 31.2476V21.5778H223.418ZM187.301 34.6364C185.531 34.6364 184.135 34.049 183.151 32.8931C182.162 31.7306 181.66 30.0742 181.66 27.9687C181.66 25.7969 182.162 24.0973 183.152 22.9143C184.136 21.7396 185.519 21.1431 187.262 21.1431C188.952 21.1431 190.299 21.7126 191.263 22.8371C192.232 23.9668 192.724 25.653 192.724 27.85C192.724 30.0742 192.261 31.783 191.349 32.9258C190.444 34.0604 189.082 34.6364 187.301 34.6364ZM187.519 17.1548C184.141 17.1548 181.458 18.1444 179.546 20.0963C177.634 22.0486 176.665 24.7497 176.665 28.1263C176.665 31.3331 177.611 33.9124 179.477 35.7919C181.343 37.6717 183.883 38.6239 187.024 38.6239C190.298 38.6239 192.927 37.6207 194.839 35.6418C196.751 33.665 197.719 30.9892 197.719 27.6912C197.719 24.4346 196.81 21.8361 195.017 19.9693C193.223 18.1017 190.7 17.1548 187.519 17.1548ZM168.801 17.1548C166.504 17.1548 164.603 17.7425 163.152 18.9011C161.691 20.0666 160.951 21.5956 160.951 23.4454C160.951 24.4067 161.11 25.2607 161.425 25.985C161.742 26.712 162.232 27.3517 162.883 27.8889C163.529 28.4217 164.526 28.9798 165.847 29.5471C166.958 30.0044 167.787 30.3914 168.313 30.696C168.827 30.9949 169.193 31.2951 169.399 31.5875C169.599 31.8733 169.701 32.2652 169.701 32.7482C169.701 34.1245 168.67 34.7939 166.55 34.7939C165.763 34.7939 164.866 34.6298 163.883 34.306C162.908 33.987 161.987 33.5201 161.153 32.9215L160.951 32.7766V37.4719L161.025 37.5068C161.715 37.8253 162.585 38.0937 163.611 38.3053C164.634 38.5165 165.564 38.6243 166.372 38.6243C168.865 38.6243 170.873 38.0339 172.337 36.8684C173.812 35.6945 174.559 34.1302 174.559 32.2159C174.559 30.8356 174.157 29.6514 173.363 28.6966C172.577 27.7497 171.21 26.88 169.304 26.1116C167.785 25.502 166.812 24.9962 166.411 24.6079C166.024 24.2326 165.828 23.702 165.828 23.0304C165.828 22.4343 166.07 21.9574 166.568 21.5708C167.07 21.1824 167.768 20.9847 168.644 20.9847C169.457 20.9847 170.288 21.113 171.115 21.3644C171.941 21.6161 172.666 21.9535 173.273 22.3654L173.472 22.5015V18.0471L173.395 18.0144C172.837 17.7744 172.099 17.5693 171.205 17.4035C170.313 17.2385 169.504 17.1548 168.801 17.1548ZM148.235 34.6364C146.465 34.6364 145.07 34.049 144.086 32.8931C143.096 31.7306 142.596 30.0742 142.596 27.9687C142.596 25.7969 143.097 24.0973 144.087 22.9143C145.07 21.7396 146.452 21.1431 148.196 21.1431C149.887 21.1431 151.233 21.7126 152.198 22.8371C153.167 23.9668 153.658 25.653 153.658 27.85C153.658 30.0742 153.196 31.783 152.284 32.9258C151.378 34.0604 150.017 34.6364 148.235 34.6364ZM148.453 17.1548C145.075 17.1548 142.392 18.1444 140.481 20.0963C138.569 22.0486 137.599 24.7497 137.599 28.1263C137.599 31.3344 138.546 33.9124 140.412 35.7919C142.278 37.6717 144.817 38.6239 147.959 38.6239C151.232 38.6239 153.862 37.6207 155.774 35.6418C157.685 33.665 158.654 30.9892 158.654 27.6912C158.654 24.4346 157.745 21.8361 155.952 19.9693C154.157 18.1017 151.634 17.1548 148.453 17.1548ZM130.196 21.1955V17.6483H125.378V38.1299H130.195V27.6524C130.195 25.8707 130.599 24.4071 131.397 23.3018C132.183 22.2096 133.232 21.6559 134.512 21.6559C134.946 21.6559 135.433 21.7274 135.961 21.8692C136.483 22.0097 136.862 22.1625 137.085 22.3231L137.287 22.4701V17.6134L137.208 17.5798C136.76 17.3891 136.125 17.2931 135.322 17.2931C134.112 17.2931 133.028 17.6819 132.1 18.4477C131.286 19.121 130.697 20.0444 130.247 21.1955H130.196ZM116.75 17.1548C114.54 17.1548 112.568 17.6291 110.891 18.5633C109.211 19.4993 107.911 20.8368 107.027 22.5364C106.147 24.2326 105.7 26.2137 105.7 28.423C105.7 30.3578 106.133 32.1338 106.989 33.6986C107.846 35.2665 109.059 36.4931 110.595 37.344C112.128 38.1936 113.9 38.6243 115.862 38.6243C118.151 38.6243 120.106 38.1666 121.674 37.2642L121.737 37.2275V32.8137L121.535 32.9616C120.814 33.4842 120.019 33.8977 119.177 34.1887C118.326 34.4858 117.55 34.6359 116.869 34.6359C114.978 34.6359 113.461 34.0447 112.359 32.8787C111.255 31.7106 110.695 30.0711 110.695 28.0076C110.695 25.9313 111.279 24.2496 112.43 23.0082C113.577 21.7711 115.097 21.1436 116.948 21.1436C118.532 21.1436 120.075 21.6799 121.535 22.7389L121.737 22.8855V18.2348L121.672 18.1981C121.122 17.8905 120.373 17.6365 119.443 17.4441C118.517 17.2521 117.611 17.1548 116.75 17.1548ZM102.382 17.6483H97.5635V38.1299H102.382V17.6483ZM100.022 8.9232C99.2291 8.9232 98.5374 9.19331 97.9693 9.72786C97.3985 10.2646 97.1088 10.9401 97.1088 11.7369C97.1088 12.5215 97.395 13.1843 97.9597 13.7066C98.5213 14.2272 99.2151 14.4912 100.022 14.4912C100.828 14.4912 101.525 14.2272 102.093 13.7075C102.665 13.1843 102.955 12.5215 102.955 11.7369C102.955 10.968 102.672 10.2991 102.117 9.74968C101.561 9.20117 100.856 8.9232 100.022 8.9232ZM88.001 16.1376V38.1295H92.918V9.55026H86.1129L77.4628 30.778L69.0689 9.55026H61.9868V38.1299H66.6074V16.1354H66.7662L75.6301 38.1299H79.1167L87.8422 16.1372L88.001 16.1376Z" fill="black"/>
<path d="M22.6643 22.6643H0V0H22.6643V22.6643Z" fill="black"/>
<path d="M47.6889 22.6643H25.0246V0H47.6889V22.6643Z" fill="black"/>
<path d="M22.6639 47.6976H0V25.0333H22.6639V47.6976Z" fill="black"/>
<path d="M47.6889 47.6976H25.0246V25.0333H47.6889V47.6976Z" fill="black"/>
</g>
<defs>
<clipPath id="clip0_3_493">
<rect width="223.418" height="48" fill="white"/>
</clipPath>
</defs>
</svg>
