<svg width="98" height="36" viewBox="0 0 98 36" fill="none" xmlns="http://www.w3.org/2000/svg">
<g clip-path="url(#clip0_2_114)">
<path d="M22.2434 18.9537L23.9371 18.0684V4.82016H22.6419L19.4869 8.95202H19.1216L19.354 4.29548H33.0368L33.2361 8.95202H32.8708L29.749 4.82016H28.4205V18.0356L30.1475 18.921V19.3801H22.2434V18.9537ZM34.5645 18.3635V3.67242L33.2361 3.14774V2.8854L38.0184 2H38.5498V8.98481L38.6494 8.88644C39.8118 7.93545 41.2399 7.37798 42.7676 7.37798C44.8599 7.37798 45.7898 8.55851 45.7898 10.7228V18.3635L46.9189 18.9537V19.3801H40.6421V18.9537L41.7713 18.3635V10.69C41.7713 9.4767 41.2399 9.01761 40.2436 9.01761C39.6458 9.01761 39.048 9.18157 38.583 9.54229V18.3635L39.679 18.9537V19.3801H33.4022V18.9865L34.5645 18.3635ZM50.3396 13.8381C50.4725 16.2648 51.5684 18.1339 54.1921 18.1339C55.4541 18.1339 56.3508 17.5437 57.181 17.1174V17.6093C56.0519 18.9865 54.3581 19.7408 52.5647 19.7408C48.513 19.7408 46.454 17.5109 46.454 13.6741C46.454 9.903 48.7123 7.57473 52.3655 7.57473C55.8194 7.57473 57.5796 9.27995 57.5796 13.7397V13.8381H50.3396ZM50.2732 13.2806L53.8267 13.0511C53.8267 10.0342 53.2954 8.03383 52.2658 8.03383C51.1367 8.06662 50.2732 10.3949 50.2732 13.2806ZM-0.0078125 25.2499C-0.0078125 18.8554 4.27637 16.5927 9.05871 16.5927C11.0846 16.5927 13.0108 16.9206 14.0735 17.3469L14.1732 21.8067H13.7082L10.9185 17.4781C10.3539 17.2485 9.75613 17.1502 9.15834 17.183C6.63433 17.183 5.3059 20.0687 5.37232 24.8236C5.40553 30.4967 6.43506 33.0873 8.75981 33.0873C9.22476 33.0873 9.72292 33.0218 10.1547 32.8578V26.7912L8.56055 25.9386V25.4139H15.9997V25.9714L14.4721 26.824V32.825C12.6787 33.4481 10.7857 33.776 8.85945 33.776C3.4461 33.7432 -0.0078125 31.251 -0.0078125 25.2499ZM15.3023 22.2658V21.9051L20.2839 21.0197L20.8485 21.0525V30.7591C20.8485 31.9396 21.4131 32.3003 22.3762 32.3003C23.0072 32.3003 23.605 32.038 24.0035 31.5461V22.8561L22.6087 22.2658V21.8723L27.5903 21.0197L28.0884 21.0525V32.2019L29.4501 32.7594V33.1201L24.5681 33.7104L24.0699 33.6776V32.2019H23.9371C22.9408 33.1857 21.6124 33.7104 20.1843 33.7432C17.7931 33.7432 16.6972 32.3331 16.6972 30.2344V22.8561L15.3023 22.2658ZM46.62 21.0197L47.0185 21.0525V24.6597H47.1182C47.6496 22.0362 48.8119 21.0525 50.2732 21.0525C50.4725 21.0525 50.7049 21.0853 50.9042 21.1509V24.7908C50.5721 24.7252 50.2068 24.6924 49.8747 24.6924C48.9448 24.6597 48.0149 24.8564 47.1514 25.2171V32.3331L48.2806 32.9562V33.4808H41.8045V32.989L42.9668 32.3659V22.6593L41.6052 22.2658V21.9379L46.62 21.0197ZM59.1405 21.3148V17.5109L57.7788 17.0518V16.7566L62.8268 15.8385L63.2918 15.904V32.2019L64.6866 32.6938V33.1201L59.705 33.776L59.3065 33.7432V32.3987H59.2069C58.3434 33.2841 57.1478 33.8088 55.8858 33.776C53.1625 33.776 51.2031 31.7428 51.2031 27.5454C51.2031 23.1184 53.4946 20.9541 56.9818 20.9541C57.7124 20.9213 58.443 21.0525 59.1405 21.3148ZM59.1405 31.7428V22.0035C58.7751 21.6755 58.277 21.5444 57.7788 21.5772C56.4172 21.6099 55.5869 23.6431 55.5869 27.2175C55.5869 30.4311 56.1847 32.2347 57.9781 32.1691C58.4098 32.1691 58.8083 32.038 59.1405 31.7428ZM70.1332 21.0197L70.5649 21.0525V32.3659L71.6941 32.989V33.4808H65.218V32.989L66.3804 32.3659V22.8233L64.9855 22.2658V21.8723L70.1332 21.0197ZM70.5982 17.97C70.5649 19.1505 69.5686 20.0687 68.373 20.0359C67.576 20.0687 66.8453 19.6752 66.4468 19.0193C66.0483 18.3635 66.0483 17.5437 66.4468 16.855C66.8453 16.1992 67.576 15.8057 68.373 15.8385C69.6018 15.8057 70.5982 16.7566 70.5982 17.97ZM85.1444 32.3659V22.7249L83.7828 22.2658V21.8067L88.7644 20.8885L89.2626 20.9213V22.3642H89.3954C90.591 21.3804 92.0855 20.8229 93.6464 20.8229C95.8051 20.8229 96.7682 21.8395 96.7682 24.1022V32.3659L97.9306 33.0218V33.4808H91.4545V32.989L92.6168 32.3659V24.2989C92.6168 23.0528 92.0855 22.5609 91.0559 22.5609C90.4249 22.5281 89.8271 22.7249 89.3622 23.0856V32.3331L90.4914 32.9562V33.4808H84.0153V32.989L85.1444 32.3659ZM78.1038 26.2993V24.6924C78.1038 22.2658 77.5724 21.4788 76.0447 21.4788C75.8787 21.4788 75.7126 21.5116 75.5133 21.5116L72.7901 25.1515H72.4247V21.8067C73.886 21.3148 75.4137 21.0525 76.9746 21.0197C80.2957 21.0197 82.2219 21.9379 82.2219 24.6597V32.5299L83.4175 32.825V33.1529C82.6536 33.5464 81.8234 33.7104 80.9599 33.7104C79.3326 33.7104 78.5355 33.1857 78.1702 32.3003H78.0706C77.3731 33.2185 76.3768 33.7432 74.8491 33.7432C72.8897 33.7432 71.5281 32.5299 71.5281 30.4311C71.5281 28.398 72.8233 27.2831 75.4137 26.7912L78.1038 26.2993ZM78.1038 31.7428V26.8895L77.2735 26.9551C75.9783 27.0535 75.5133 27.8733 75.5133 29.7097C75.5133 31.6773 76.1775 32.2019 77.0742 32.2019C77.4728 32.2019 77.8381 32.0708 78.1038 31.7428ZM36.059 26.2993V24.6924C36.059 22.2658 35.5276 21.4788 34 21.4788C33.8339 21.4788 33.6678 21.5116 33.4686 21.5116L30.7453 25.1515H30.38V21.8067C31.8413 21.3148 33.3689 21.0525 34.9299 21.0197C38.2509 21.0197 40.1771 21.9379 40.1771 24.6597V32.5299L41.3727 32.825V33.1529C40.6089 33.5464 39.7786 33.7104 38.9151 33.7104C37.2878 33.7104 36.4907 33.1857 36.1254 32.3003H36.0258C35.3284 33.2185 34.3321 33.7432 32.8044 33.7432C30.8449 33.7432 29.4833 32.5299 29.4833 30.4311C29.4833 28.398 30.7453 27.2831 33.3689 26.7912L36.059 26.2993ZM36.059 31.7428V26.8895L35.2287 26.9551C33.9335 27.0535 33.4686 27.8733 33.4686 29.7097C33.4686 31.6773 34.1328 32.2019 35.0295 32.2019C35.3948 32.2019 35.7933 32.0708 36.059 31.7428Z" fill="black"/>
</g>
<defs>
<clipPath id="clip0_2_114">
<rect width="98" height="36" fill="white"/>
</clipPath>
</defs>
</svg>
