<svg width="101" height="36" viewBox="0 0 101 36" fill="none" xmlns="http://www.w3.org/2000/svg">
<path fill-rule="evenodd" clip-rule="evenodd" d="M31.2517 2.16801C32.0919 1.94399 32.9319 1.94398 33.7721 2.056C34.7242 2.22402 35.6203 2.50405 36.4044 3.00811C36.4044 3.7362 36.4044 4.46428 36.4044 5.19237C35.9003 4.80032 35.3962 4.46428 34.7802 4.24026C33.9961 3.90422 33.156 3.7922 32.3719 3.84821C31.9798 3.90422 31.5878 3.96022 31.2517 4.18425C31.0277 4.29626 30.8037 4.52029 30.6917 4.74432C30.5237 5.02435 30.5237 5.36039 30.5797 5.69643C30.6357 5.97646 30.8037 6.2565 31.0277 6.42452C31.3078 6.64854 31.6998 6.81656 32.0358 6.92858C32.7639 7.20861 33.492 7.48864 34.2761 7.71267C34.8922 7.9367 35.5083 8.27274 36.0123 8.72079C36.5164 9.16884 36.8524 9.72891 36.9644 10.345C37.0765 11.0171 37.1325 11.6891 36.9644 12.3052C36.7964 12.8653 36.4604 13.4253 36.0123 13.8174C35.5083 14.2654 34.9482 14.5455 34.3321 14.7135C33.492 14.9375 32.5959 14.9935 31.7558 14.8815C30.6917 14.7695 29.5715 14.4335 28.6754 13.8174C28.6754 13.0893 28.6754 12.3052 28.6754 11.5771C29.7396 12.4732 31.1397 13.0333 32.5399 13.0333C33.156 13.0333 33.7721 12.9773 34.2761 12.6973C34.5561 12.5292 34.8362 12.3052 34.9482 11.9692C35.0602 11.6331 35.0602 11.2411 34.9482 10.849C34.8362 10.513 34.5561 10.233 34.2201 10.0649C33.66 9.72891 33.044 9.56089 32.4279 9.33686C31.6998 9.05683 30.9717 8.8328 30.2996 8.44076C29.7956 8.16072 29.2915 7.76868 29.0115 7.26462C28.5634 6.59254 28.4514 5.75244 28.5634 4.96834C28.6194 4.24026 29.0115 3.51217 29.5155 3.06412C30.0196 2.61606 30.6357 2.33603 31.2517 2.16801Z" fill="#1A5799"/>
<path fill-rule="evenodd" clip-rule="evenodd" d="M80.8737 2.72808C81.7138 2.16801 82.7779 1.99999 83.786 1.99999C85.0181 1.99999 86.3063 2.33603 87.3704 3.00811C87.3704 3.7362 87.3704 4.46428 87.3704 5.19237C86.9224 4.85633 86.4183 4.52029 85.9142 4.29626C85.0181 3.90422 84.01 3.7362 83.0019 3.90422C82.4978 4.01623 81.9378 4.24026 81.6578 4.68831C81.3777 5.24838 81.4897 5.97646 81.9378 6.36851C82.2738 6.70455 82.7779 6.87257 83.2259 6.98458C83.954 7.26462 84.6821 7.48864 85.4102 7.76867C86.0823 8.04871 86.6983 8.38475 87.1464 8.88881C87.5945 9.33686 87.8745 9.95293 87.9865 10.569C88.0985 11.2411 88.0425 11.9692 87.7625 12.6413C87.5384 13.2013 87.1464 13.6494 86.6423 14.0414C86.0823 14.4335 85.4102 14.6575 84.6821 14.8255C83.73 14.9935 82.7219 14.9375 81.7698 14.7135C80.9857 14.5455 80.2016 14.2654 79.5295 13.7614C79.5295 13.0333 79.5295 12.2492 79.5295 11.5211C80.3696 12.1932 81.3777 12.6973 82.4978 12.8653C82.9459 12.9773 83.45 12.9773 83.898 12.9213C84.4021 12.8653 84.8501 12.8093 85.2982 12.5292C85.6342 12.3052 85.8582 12.0252 85.9142 11.6331C85.9702 11.1851 85.9142 10.681 85.6342 10.345C85.3542 10.0649 85.0181 9.84092 84.6261 9.6729C84.01 9.44887 83.45 9.22485 82.8339 9.00082C82.2738 8.77679 81.6577 8.60877 81.1537 8.27273C80.6496 7.9927 80.2016 7.60066 79.9215 7.0966C79.6415 6.59254 79.4735 6.03247 79.4735 5.4724C79.4175 4.96834 79.5295 4.46428 79.6975 3.96022C79.9215 3.56818 80.3696 3.06412 80.8737 2.72808Z" fill="#1A5799"/>
<path fill-rule="evenodd" clip-rule="evenodd" d="M94.5393 2.33603C95.1554 2.112 95.7715 1.99999 96.3875 1.99999C97.6757 1.99999 98.9639 2.28002 100.084 2.9521C100.14 2.9521 100.14 3.00811 100.14 3.06412C100.14 3.7922 100.14 4.46428 100.14 5.19237C99.6359 4.80032 99.0759 4.46428 98.5158 4.24026C97.7877 3.96022 96.9476 3.7922 96.1635 3.84821C95.7715 3.90422 95.3234 3.96022 94.9874 4.18425C94.7073 4.35227 94.4833 4.5763 94.3713 4.80032C94.1473 5.36039 94.2593 6.03247 94.7073 6.36851C95.2114 6.76056 95.8275 6.92858 96.4435 7.1526C97.1156 7.43263 97.8437 7.65666 98.5158 7.93669C99.1319 8.21673 99.7479 8.60877 100.14 9.16884C100.588 9.78491 100.756 10.513 100.756 11.2411C100.756 11.9132 100.588 12.5852 100.252 13.0893C99.86 13.6494 99.3559 14.0414 98.7398 14.3215C98.0677 14.6015 97.3957 14.7695 96.6676 14.7695C95.8835 14.8255 95.0994 14.7135 94.3153 14.5455C93.5872 14.3775 92.9151 14.0974 92.299 13.7054C92.299 12.9773 92.299 12.1932 92.299 11.4651C93.3632 12.3612 94.7633 12.9213 96.1635 12.9213C96.7796 12.9213 97.3957 12.8653 97.9557 12.5852C98.2358 12.4172 98.4598 12.1932 98.5718 11.8572C98.6838 11.5211 98.6838 11.0731 98.5718 10.737C98.4598 10.401 98.1798 10.121 97.8437 9.95293C97.2837 9.61689 96.6676 9.44887 96.0515 9.22485C95.3234 8.94481 94.5953 8.72079 93.9232 8.32874C93.3632 8.04871 92.9151 7.60065 92.5791 7.04059C92.243 6.48052 92.131 5.75244 92.131 5.08036C92.131 4.46428 92.3551 3.84821 92.7471 3.34415C93.2512 2.9521 93.8672 2.56006 94.5393 2.33603Z" fill="#1A5799"/>
<path fill-rule="evenodd" clip-rule="evenodd" d="M50.686 1.99999C53.5424 4.74432 56.3987 7.48864 59.3111 10.233C59.3111 7.54465 59.3111 4.91234 59.3111 2.22402C59.9832 2.22402 60.6552 2.22402 61.3833 2.22402C61.3833 6.48052 61.3833 10.737 61.3833 14.9935C59.4791 13.0893 57.5189 11.2411 55.5586 9.33686C54.6065 8.44075 53.7104 7.54465 52.7583 6.64854C52.7583 9.33686 52.7583 12.0812 52.7583 14.7695C52.0862 14.7695 51.4141 14.7695 50.686 14.7695C50.686 10.513 50.686 6.2565 50.686 1.99999Z" fill="#1A5799"/>
<path fill-rule="evenodd" clip-rule="evenodd" d="M0 2.22402C1.12013 2.22402 2.18426 2.22402 3.30439 2.22402C4.08849 2.22402 4.87258 2.16801 5.60067 2.33603C6.32876 2.44804 7.05684 2.72808 7.61691 3.23214C8.06496 3.62418 8.401 4.18425 8.51302 4.74432C8.68104 5.4164 8.68104 6.08848 8.45701 6.76055C8.23298 7.43263 7.72892 8.04871 7.05684 8.32874C7.16886 8.38475 7.28087 8.44075 7.39288 8.49676C8.00896 8.8328 8.51302 9.39287 8.79305 10.0089C9.01708 10.513 9.07308 11.0171 9.01708 11.5771C8.96107 12.2492 8.73704 12.9213 8.28899 13.4813C7.78493 14.0974 7.05684 14.4895 6.32876 14.6575C5.65668 14.8255 5.0406 14.8255 4.36852 14.8255C2.91235 14.8255 1.45617 14.8255 0 14.8255C0 10.569 0 6.36851 0 2.22402ZM2.07225 4.07224C2.07225 5.19237 2.07225 6.36851 2.07225 7.48864C2.91235 7.48864 3.75245 7.48864 4.59255 7.48864C5.09661 7.48864 5.71268 7.37663 6.10473 6.98458C6.38476 6.70455 6.55278 6.3125 6.60879 5.92046C6.6648 5.4724 6.55278 5.02435 6.27275 4.68831C5.99272 4.35227 5.60067 4.24026 5.20862 4.12824C4.81658 4.07224 4.36852 4.07224 3.92047 4.07224C3.30439 4.07224 2.68832 4.07224 2.07225 4.07224ZM2.07225 9.22485C2.07225 10.457 2.07225 11.6891 2.07225 12.8653C2.96835 12.8653 3.86446 12.8653 4.76057 12.8653C5.26463 12.8653 5.76869 12.7533 6.21674 12.4732C6.60879 12.2492 6.83282 11.8572 6.88882 11.4091C7.00084 10.9611 6.94483 10.457 6.6648 10.0089C6.44077 9.6729 6.10473 9.44887 5.76869 9.33686C5.43265 9.22485 5.09661 9.16884 4.70456 9.16884C3.86446 9.22485 2.96835 9.22485 2.07225 9.22485Z" fill="#1A5799"/>
<path fill-rule="evenodd" clip-rule="evenodd" d="M13.6096 2.22402C14.3377 2.22402 15.0098 2.22402 15.7379 2.22402C15.7379 4.40828 15.7379 6.53653 15.7379 8.72078C15.7379 9.50488 15.6819 10.233 15.9059 11.0171C16.0739 11.6331 16.354 12.1932 16.858 12.5852C17.3621 12.9773 17.9781 13.0893 18.6502 13.0893C19.2663 13.0893 19.9384 12.9773 20.4424 12.5852C20.8905 12.2492 21.1705 11.8011 21.3385 11.2971C21.5066 10.681 21.5626 10.0649 21.5626 9.44887C21.5626 7.04059 21.5626 4.6323 21.5626 2.28002C22.2907 2.28002 22.9627 2.28002 23.6908 2.28002C23.6908 4.80032 23.6908 7.26461 23.6908 9.78491C23.6908 10.793 23.5228 11.8572 23.0187 12.7533C22.5707 13.5374 21.8986 14.2094 21.0585 14.5455C20.1064 14.9375 19.0423 15.0495 18.0342 14.9935C17.3061 14.9375 16.634 14.7695 15.9619 14.4335C15.5138 14.2094 15.0658 13.8734 14.7298 13.4253C14.3377 12.9773 14.0577 12.3612 13.8897 11.8011C13.6656 11.1291 13.6096 10.401 13.6096 9.7289C13.6096 7.1526 13.6096 4.68831 13.6096 2.22402Z" fill="#1A5799"/>
<path fill-rule="evenodd" clip-rule="evenodd" d="M42.5091 2.22402C43.2371 2.22402 43.9092 2.22402 44.6373 2.22402C44.6373 6.42452 44.6373 10.569 44.6373 14.7695C43.9092 14.7695 43.2371 14.7695 42.5091 14.7695C42.5091 10.569 42.5091 6.36851 42.5091 2.22402Z" fill="#1A5799"/>
<path fill-rule="evenodd" clip-rule="evenodd" d="M67.04 2.22402C69.5603 2.22402 72.0806 2.22402 74.6569 2.22402C74.6569 2.84009 74.6569 3.51217 74.6569 4.12824C72.8087 4.12824 70.9605 4.12824 69.1682 4.12824C69.1682 5.13636 69.1682 6.14448 69.1682 7.1526C70.7924 7.1526 72.4726 7.1526 74.0968 7.1526C74.0968 7.76868 74.0968 8.38475 74.0968 9.00082C72.4726 9.00082 70.7924 9.00082 69.1682 9.00082C69.1682 10.289 69.1682 11.5771 69.1682 12.8653C71.0165 12.8653 72.8647 12.8653 74.6569 12.8653C74.6569 13.4814 74.6569 14.1534 74.6569 14.7695C72.1366 14.7695 69.6163 14.7695 67.04 14.7695C67.04 11.3531 67.04 7.9927 67.04 4.5763C67.04 3.7922 66.984 3.00811 67.04 2.22402Z" fill="#1A5799"/>
<path fill-rule="evenodd" clip-rule="evenodd" d="M16.578 21.0983C19.4343 23.7866 22.2907 26.4749 25.147 29.1632C25.147 26.5309 25.147 23.8986 25.147 21.2663C25.8191 21.2663 26.4912 21.2663 27.1633 21.2663C27.1633 25.4668 27.1633 29.6113 27.1633 33.8118C24.3069 31.0674 21.4506 28.3231 18.6503 25.5788C18.6503 28.2671 18.6503 30.8994 18.6503 33.5877C17.9782 33.5877 17.3061 33.5877 16.634 33.5877C16.578 29.4432 16.522 25.2427 16.578 21.0983Z" fill="#1A5799"/>
<path fill-rule="evenodd" clip-rule="evenodd" d="M34.3881 21.5463C35.1722 21.1543 36.0683 21.0422 36.9644 21.0982C38.1406 21.1543 39.3167 21.4343 40.3248 22.1064C40.3248 22.8345 40.3248 23.5625 40.3248 24.2906C39.8208 23.8986 39.3167 23.5625 38.7006 23.3385C37.9165 23.0025 37.0764 22.8905 36.2923 22.9465C35.9003 23.0025 35.5082 23.0585 35.1722 23.2825C34.8922 23.4505 34.7242 23.6746 34.6121 23.9546C34.4441 24.4587 34.5561 25.0187 34.8922 25.3548C35.1722 25.6348 35.5643 25.8028 35.9563 25.9708C36.6844 26.2509 37.4685 26.5309 38.1966 26.7549C38.8126 26.979 39.3727 27.259 39.8768 27.651C40.3808 28.0431 40.7169 28.6031 40.8849 29.2192C41.0529 29.8353 41.0529 30.4514 40.9409 31.1234C40.8289 31.7395 40.4928 32.2996 40.0448 32.6916C39.5967 33.1397 38.9807 33.4197 38.3646 33.6437C37.5805 33.8678 36.7964 33.9238 35.9563 33.8678C35.1162 33.8118 34.2761 33.6437 33.548 33.3077C33.212 33.1397 32.8759 33.0277 32.5959 32.8036C32.5959 32.0756 32.5959 31.3475 32.5959 30.6194C33.66 31.5155 35.0602 32.0196 36.4604 32.0756C37.0764 32.0756 37.6925 32.0195 38.1966 31.7395C38.5326 31.5715 38.7566 31.2915 38.8686 30.9554C38.9807 30.6194 38.9807 30.2273 38.8126 29.8913C38.7006 29.5553 38.3646 29.2752 38.0846 29.1072C37.5245 28.8272 36.9644 28.6031 36.3483 28.4351C35.6763 28.2111 35.0042 27.9871 34.3881 27.651C33.828 27.371 33.324 26.9229 32.9879 26.4189C32.6519 25.8588 32.4839 25.1867 32.5399 24.5707C32.5399 23.9546 32.7079 23.3385 33.044 22.8345C33.324 22.1624 33.828 21.7703 34.3881 21.5463Z" fill="#1A5799"/>
<path fill-rule="evenodd" clip-rule="evenodd" d="M8.401 21.2663C9.12909 21.2663 9.80117 21.2663 10.5293 21.2663C10.5293 25.4108 10.5293 29.4992 10.5293 33.6437C9.80117 33.6437 9.12909 33.6437 8.401 33.6437C8.401 29.4992 8.401 25.4108 8.401 21.2663Z" fill="#1A5799"/>
<path fill-rule="evenodd" clip-rule="evenodd" d="M46.3736 21.2663C47.1016 21.2663 47.7737 21.2663 48.5018 21.2663C48.5018 25.4108 48.5018 29.4992 48.5018 33.6437C47.7737 33.6437 47.1016 33.6437 46.3736 33.6437C46.3736 29.4992 46.3736 25.4108 46.3736 21.2663Z" fill="#1A5799"/>
<path fill-rule="evenodd" clip-rule="evenodd" d="M54.6625 21.2663C56.2867 21.2663 57.9109 21.2663 59.5351 21.2663C60.8233 21.2663 62.1114 21.6023 63.1195 22.3864C64.0157 23.0025 64.6317 23.8986 65.0238 24.9067C65.3038 25.7468 65.4718 26.6429 65.4158 27.539C65.4158 28.8272 65.1358 30.1153 64.4077 31.1794C63.8476 32.0756 62.9515 32.8036 61.9434 33.1957C61.1593 33.5317 60.3192 33.6437 59.4791 33.6437C57.8549 33.6437 56.2307 33.6437 54.6065 33.6437C54.6625 29.4992 54.6625 25.4108 54.6625 21.2663ZM56.7908 23.1145C56.7908 25.9708 56.7908 28.8832 56.7908 31.7395C57.4629 31.7395 58.135 31.7395 58.807 31.7395C59.1991 31.7395 59.6471 31.7395 60.0392 31.6835C60.8233 31.5715 61.6074 31.2915 62.1674 30.7314C62.6715 30.2833 63.0075 29.6113 63.1756 28.9392C63.3436 28.2671 63.3996 27.595 63.3436 26.9229C63.2876 26.3069 63.1756 25.6908 62.8955 25.1307C62.6715 24.5707 62.2794 24.1226 61.7754 23.7866C61.2153 23.3945 60.5433 23.1705 59.8712 23.1145C59.4791 23.0585 59.0311 23.1145 58.639 23.0585C58.0229 23.1145 57.4069 23.1145 56.7908 23.1145Z" fill="#1A5799"/>
<path fill-rule="evenodd" clip-rule="evenodd" d="M69.8964 21.2663C72.4167 21.2663 74.937 21.2663 77.4572 21.2663C77.4572 21.8823 77.4572 22.4984 77.4572 23.1145C75.609 23.1145 73.8168 23.1145 71.9686 23.1145C71.9686 24.1226 71.9686 25.0747 71.9686 26.0828C73.5928 26.0828 75.217 26.0828 76.8412 26.0828C76.8412 26.6989 76.8412 27.315 76.8412 27.9311C75.217 27.9311 73.5928 27.9311 71.9686 27.9311C71.9686 29.2192 71.9686 30.5074 71.9686 31.7395C73.8168 31.7395 75.609 31.7395 77.4572 31.7395C77.4572 32.3556 77.4572 32.9717 77.4572 33.5877C74.937 33.5877 72.4167 33.5877 69.8964 33.5877C69.8964 29.4993 69.8964 25.4108 69.8964 21.2663Z" fill="#1A5799"/>
<path fill-rule="evenodd" clip-rule="evenodd" d="M83.73 21.2663C85.2982 21.2663 86.8104 21.2663 88.3785 21.2663C89.1626 21.2663 89.9467 21.3783 90.6188 21.7703C91.1789 22.0504 91.6269 22.4424 91.963 22.9465C92.355 23.5625 92.523 24.2906 92.467 25.0187C92.467 25.7468 92.355 26.5309 91.963 27.147C91.6829 27.651 91.2349 27.9871 90.7308 28.2111C90.3388 28.3791 89.9467 28.4911 89.5547 28.5471C91.0669 30.2273 92.523 31.9075 94.0352 33.6437C93.2511 33.6437 92.411 33.6437 91.6269 33.6437C90.1708 31.9635 88.7706 30.2833 87.3144 28.6591C86.8103 28.6591 86.3063 28.6591 85.8582 28.6591C85.8582 30.3393 85.8582 32.0195 85.8582 33.6437C85.1301 33.6437 84.4581 33.6437 83.73 33.6437C83.73 29.4992 83.73 25.4108 83.73 21.2663ZM85.8582 23.1145C85.8582 24.3466 85.8582 25.6348 85.8582 26.8669C86.6983 26.8669 87.4824 26.8669 88.3225 26.8669C88.8826 26.8669 89.4427 26.6989 89.8907 26.3069C90.1708 26.0268 90.3388 25.6908 90.3948 25.2987C90.4508 24.8507 90.3948 24.2906 90.1147 23.8986C89.8907 23.5065 89.4427 23.2825 88.9946 23.1705C88.5466 23.0585 88.0985 23.0585 87.6505 23.0585C87.0344 23.1145 86.4743 23.1145 85.8582 23.1145Z" fill="#1A5799"/>
</svg>
