<svg width="144" height="36" viewBox="0 0 144 36" fill="none" xmlns="http://www.w3.org/2000/svg">
<g clip-path="url(#clip0_2_123)">
<path d="M128.963 27.5319H134.165C134.367 28.1879 135.054 28.8439 136.34 28.8439C138.082 28.8439 138.682 27.7621 138.682 26.1625V25.0231H138.566C137.707 26.0244 136.565 26.7609 134.881 26.7609C131.564 26.7609 128.68 24.3096 128.68 19.5164C128.68 15.126 131.051 11.7023 134.627 11.7023C136.686 11.7023 137.943 12.5309 138.774 13.8429H138.861V12.1627H144.006V25.4489C144.006 27.9002 143.146 29.8106 141.86 30.9556C140.516 32.1525 138.601 32.6358 136.426 32.6358C132.337 32.6358 129.482 30.9499 128.963 27.5319ZM138.913 19.2575C138.913 17.3471 138.001 15.805 136.426 15.805C134.91 15.805 133.94 17.1745 133.94 19.2575C133.94 21.3117 134.915 22.7905 136.426 22.7905C137.995 22.7963 138.913 21.283 138.913 19.2575ZM122.935 14.7808H123.021C124.135 12.6403 125.594 11.8462 127.451 11.8462C127.878 11.8462 128.167 11.9037 128.34 11.99V16.6969H128.224C125.052 16.1273 123.195 17.6406 123.195 21.0873V27.5032H117.79V12.1627H122.935V14.7808ZM0 6H10.5786C12.5802 6 14.1202 6.48335 15.2104 7.36948C16.439 8.36494 17.0966 9.84951 17.0966 11.616C17.0966 13.6702 16.266 14.9534 14.5529 15.7532V15.8396C16.7851 16.5818 18.0714 18.5785 18.0714 21.001C18.0714 23.3084 17.1831 25.1094 15.7295 26.1912C14.5009 27.0774 12.9032 27.5032 10.7863 27.5032H0V6ZM10.0653 22.7387C11.3516 22.7387 12.2918 21.9677 12.2918 20.5407C12.2918 19.0561 11.265 18.3426 10.0365 18.3426H5.86036V22.733H10.0653V22.7387ZM9.51732 14.4125C10.6594 14.4125 11.49 13.7853 11.49 12.5309C11.49 11.3053 10.6306 10.7069 9.48848 10.7069H5.86036V14.4125H9.51732Z" fill="black"/>
<path d="M19.0404 6H24.5835V27.5032H19.0404V6ZM25.6448 19.8559C25.6448 15.011 28.7884 11.7311 33.6509 11.7311C38.5134 11.7311 41.5993 15.011 41.5993 19.8559C41.5993 24.7354 38.5134 27.9808 33.6509 27.9808C28.7884 27.9865 25.6448 24.7354 25.6448 19.8559ZM36.1081 19.8559C36.1081 17.1745 35.2487 15.4943 33.5932 15.4943C31.9378 15.4943 31.136 17.1745 31.136 19.8559C31.136 22.5661 31.9378 24.2463 33.5932 24.2463C35.2487 24.2521 36.1081 22.5661 36.1081 19.8559ZM42.228 19.8559C42.228 15.011 45.3716 11.7311 50.2341 11.7311C55.0966 11.7311 58.1825 15.011 58.1825 19.8559C58.1825 24.7354 55.0966 27.9808 50.2341 27.9808C45.3716 27.9865 42.228 24.7354 42.228 19.8559ZM52.6913 19.8559C52.6913 17.1745 51.8319 15.4943 50.1764 15.4943C48.521 15.4943 47.7192 17.1745 47.7192 19.8559C47.7192 22.5661 48.521 24.2463 50.1764 24.2463C51.8319 24.2521 52.6913 22.5661 52.6913 19.8559ZM59.2381 12.1627H64.3832V14.4701H64.4697C65.4964 12.6748 66.8981 11.7023 69.1015 11.7023C71.0453 11.7023 72.5047 12.669 73.2487 14.355H73.3353C74.5927 12.3295 76.2251 11.7023 78.1112 11.7023C81.6874 11.7023 83.2275 14.3262 83.2275 17.8592V27.4974H77.8228V18.8317C77.8228 17.2608 77.3383 16.2366 75.9655 16.2366C74.6215 16.2366 73.9351 17.491 73.9351 19.1482V27.5032H68.5247V18.8317C68.5247 17.2608 68.0402 16.2366 66.6674 16.2366C65.3234 16.2366 64.637 17.491 64.637 19.1482V27.5032H59.2381V12.1627ZM89.8262 25.5065H89.7685V27.5032H84.6234V6H90.0281V13.7566H90.1146C91.1413 12.4158 92.5141 11.7023 94.4868 11.7023C98.3456 11.7023 100.578 15.1836 100.578 19.7984C100.578 25.0174 98.1495 28.0095 94.1465 28.0095C92.4853 28.0153 90.7721 27.2155 89.8262 25.5065ZM95.0867 19.7466C95.0867 17.2666 94.1753 15.6669 92.5429 15.6669C90.8875 15.6669 89.8262 17.2666 89.8262 19.7466C89.8262 22.1979 90.8817 23.8263 92.5429 23.8263C94.1984 23.8205 95.0867 22.2266 95.0867 19.7466ZM101.264 19.8041C101.264 15.011 104.437 11.6793 109.04 11.6793C111.324 11.6793 113.1 12.3928 114.444 13.676C116.215 15.385 117.017 18.0664 116.959 21.2312H106.64C106.871 23.1415 107.782 24.114 109.415 24.114C110.361 24.114 111.185 23.6882 111.531 22.6582H116.734C115.823 26.1624 113.106 27.9347 109.247 27.9347C104.466 27.929 101.264 24.7067 101.264 19.8041ZM106.64 18.2045H111.555C111.468 16.3517 110.441 15.3792 109.155 15.3792C107.667 15.3792 106.836 16.438 106.64 18.2045Z" fill="black"/>
</g>
<defs>
<clipPath id="clip0_2_123">
<rect width="144" height="36" fill="white"/>
</clipPath>
</defs>
</svg>
