<svg width="184" height="36" viewBox="0 0 184 36" fill="none" xmlns="http://www.w3.org/2000/svg">
<path d="M13.7803 8.28843C13.7803 6.29128 11.8831 5.79199 10.3852 5.79199V6.09156C11.2839 6.09156 11.9829 6.39114 11.9829 7.09014C11.9829 7.48957 11.6833 8.08872 10.7846 8.08872C10.0856 8.08872 8.58775 7.68929 7.48932 7.28986C6.19117 6.79057 4.99288 6.39114 3.9943 6.39114C1.99715 6.39114 0.599146 7.889 0.599146 9.58658C0.599146 11.0844 1.69758 11.5837 2.09701 11.7834L2.19687 11.5837C1.99715 11.384 1.69758 11.1843 1.69758 10.5852C1.69758 10.1857 2.09701 9.48672 3.09559 9.48672C3.9943 9.48672 5.1926 9.88615 6.79032 10.3854C8.18832 10.7849 9.68619 11.0844 10.485 11.1843V14.2799L8.98718 15.578V15.6779L10.485 16.976V21.2699C9.68619 21.7692 8.78747 21.8691 7.98861 21.8691C6.49074 21.8691 5.19259 21.4696 4.09416 20.2713L8.18832 18.2742V11.384L3.19544 13.5809C3.59487 12.2827 4.69331 11.384 5.79174 10.7849L5.69188 10.4853C2.69615 11.2842 0 14.0802 0 17.4753C0 21.4696 3.2953 24.4654 6.99003 24.4654C10.9843 24.4654 13.5806 21.2699 13.5806 17.9746H13.3809C12.7818 19.2728 11.8831 20.4711 10.7846 21.0702V16.976L12.3823 15.6779V15.578L10.7846 14.2799V11.1843C12.2825 11.1843 13.7803 10.1857 13.7803 8.28843ZM5.09274 19.2728L3.89445 19.8719C3.19544 18.9732 2.79601 17.7749 2.79601 16.0773C2.79601 15.3783 2.79601 14.5795 2.99573 13.9803L5.09274 13.0816V19.2728ZM15.6776 21.5695L14.3795 22.5681L14.5792 22.7678L15.1784 22.2685L17.3752 24.2656L20.3709 22.2685L20.2711 22.0688L19.4722 22.5681L18.4737 21.5695V14.7792L19.2725 14.18L20.9701 15.578V21.6693C20.9701 25.4639 20.1712 26.0631 18.4737 26.6622V26.9618C21.2697 27.0617 23.866 26.1629 23.866 21.2699V14.6793L24.7647 13.9803L24.565 13.7806L23.7661 14.3797L21.2697 12.2827L18.4737 14.3797V6.19142H18.2739L14.7789 8.588V8.78772C15.1784 8.98743 15.7775 9.18715 15.7775 10.2856L15.6776 21.5695ZM33.9516 20.4711L31.4551 22.3684L28.9587 20.3712V19.1729L33.652 15.9775V15.8776L31.2554 12.2827L26.0628 15.0787V21.6693L25.0643 22.4682L25.264 22.6679L26.1627 21.9689L29.5578 24.4654L34.0514 20.8705L33.9516 20.4711ZM28.9587 18.7735V13.8805L29.1584 13.7806L31.3553 17.2756L28.9587 18.7735ZM53.0244 7.38971C53.0244 7.09014 52.9245 6.79057 52.8247 6.491H52.625C52.3254 7.28986 51.9259 7.68929 50.9274 7.68929C50.0287 7.68929 49.4295 7.19 49.0301 6.79057L46.1342 10.0859L46.3339 10.2856L47.3325 9.38686C47.9316 9.88615 48.4309 10.2856 49.8289 10.3854V18.6736L43.9373 8.588C43.4381 7.78914 42.7391 6.69071 41.341 6.69071C39.7433 6.69071 38.3453 8.08872 38.545 10.2856H38.8446C38.9445 9.68644 39.244 8.98743 39.943 8.98743C40.4423 8.98743 40.9416 9.48672 41.2412 9.98601V13.2813C39.4437 13.2813 38.2455 14.0802 38.2455 15.578C38.2455 16.3769 38.6449 17.5752 39.8432 17.8748V17.675C39.6435 17.4753 39.5436 17.2756 39.5436 16.976C39.5436 16.4768 39.943 16.0773 40.642 16.0773H41.1413V20.2713C39.0443 20.2713 37.3467 21.4696 37.3467 23.4668C37.3467 25.3641 38.9445 26.2628 40.7419 26.1629V25.9632C39.6435 25.8634 39.1442 25.3641 39.1442 24.6651C39.1442 23.7664 39.7433 23.3669 40.5422 23.3669C41.341 23.3669 42.04 23.8662 42.5393 24.4654L45.4352 21.2699L45.2355 21.0702L44.5365 21.8691C43.4381 20.8705 42.8389 20.5709 41.5408 20.3712V10.3854L49.5294 24.3655H50.1285V10.3854C51.6264 10.2856 53.0244 9.08729 53.0244 7.38971ZM60.314 20.4711L57.8175 22.3684L55.3211 20.3712V19.1729L60.0144 15.9775V15.8776L57.6178 12.2827L52.4252 15.0787V21.6693L51.4267 22.4682L51.6264 22.6679L52.5251 21.9689L55.9202 24.4654L60.4138 20.8705L60.314 20.4711ZM55.3211 18.7735V13.8805L55.5208 13.7806L57.7177 17.2756L55.3211 18.7735ZM76.5908 13.3812L75.8918 13.8805L73.9945 12.2827L71.7976 14.2799L72.6963 15.1786V22.6679L70.2997 21.1701V14.9789L71.0986 14.4796L68.8019 12.2827L66.605 14.2799L67.5037 15.1786V22.3684L67.2042 22.5681L65.1071 21.0702V15.0787C65.1071 13.6807 64.4081 13.2813 63.6093 12.782C62.9103 12.2827 62.5109 11.9832 62.5109 11.2842C62.5109 10.685 63.11 10.3854 63.4096 10.1857V9.98601C62.6107 9.98601 60.5137 10.7849 60.5137 12.6822C60.5137 13.6807 61.013 14.0802 61.5123 14.5795C62.0116 15.0787 62.5109 15.4782 62.5109 16.3769V22.1686L61.4124 22.9675L61.6121 23.1672L62.6107 22.3684L64.9074 24.3655L67.4039 22.6679L70.1999 24.3655L75.4923 21.2699V14.5795L76.7905 13.5809L76.5908 13.3812ZM95.1643 7.889L94.1657 8.78772L91.9688 6.79057L88.6735 9.18715V6.99028H88.374L88.4738 23.1672C88.1743 23.1672 87.2755 22.9675 86.5765 22.7678L86.3768 9.28701C86.3768 8.28843 85.6778 6.89043 83.8804 6.89043C82.0829 6.89043 80.8847 8.28843 80.8847 9.68644H81.1842C81.2841 9.08729 81.5837 8.588 82.1828 8.588C82.7819 8.588 83.2812 8.98743 83.2812 10.2856V14.18C81.4838 14.2799 80.3854 15.2785 80.3854 16.5766C80.3854 17.3755 80.7848 18.5738 81.9831 18.5738V18.374C81.5836 18.1743 81.4838 17.8748 81.4838 17.675C81.4838 17.0759 81.9831 16.8762 82.7819 16.8762H83.1814V23.0674C81.6835 23.5666 81.0844 24.6651 81.0844 25.8634C81.0844 27.5609 82.3825 28.7592 84.3797 28.7592C85.7777 28.7592 86.976 28.5595 88.1743 28.2599C89.1728 28.0602 90.471 27.7607 91.0701 27.7607C91.869 27.7607 92.1686 28.1601 92.1686 28.6594C92.1686 29.3584 91.869 29.658 91.4696 29.7578V29.9575C93.0673 29.658 94.0658 28.6594 94.0658 27.1615C94.0658 25.6637 92.568 24.7649 90.9703 24.7649C90.1714 24.7649 88.4738 25.0645 87.2755 25.2642C85.8775 25.5638 84.4795 25.7635 84.0801 25.7635C83.3811 25.7635 82.5822 25.4639 82.5822 24.4654C82.5822 23.6665 83.2812 22.9675 84.9788 22.9675C85.8775 22.9675 86.976 23.0674 88.0744 23.3669C89.2727 23.6665 90.3711 23.9661 91.3697 23.9661C92.8676 23.9661 94.1657 23.4668 94.1657 21.3698V9.08729L95.364 8.08872L95.1643 7.889ZM91.0701 13.9803C90.7705 14.2799 90.3711 14.5795 89.8718 14.5795C89.3725 14.5795 88.8733 14.2799 88.6735 13.9803V9.58658L89.6721 8.88758L91.0701 10.1857V13.9803ZM91.0701 16.976C90.8704 16.7763 90.3711 16.4768 89.8718 16.4768C89.3725 16.4768 88.8733 16.7763 88.6735 16.976V14.3797C88.8733 14.5795 89.3725 14.879 89.8718 14.879C90.3711 14.879 90.8704 14.5795 91.0701 14.3797V16.976ZM91.0701 21.6693C91.0701 22.4682 90.5708 23.2671 89.4724 23.2671H88.6735V17.3755C88.8733 17.1758 89.3725 16.8762 89.8718 16.8762C90.3711 16.8762 90.7705 17.1758 91.0701 17.3755V21.6693ZM104.751 14.5795L101.555 12.2827L96.6622 15.0787V21.5695L95.6636 22.3684L95.7634 22.5681L96.5623 21.9689L99.7577 24.3655L104.751 21.3698V14.5795ZM99.3583 20.8705V13.6807L101.855 15.4782V22.5681L99.3583 20.8705ZM114.237 12.4825H114.037C113.738 12.6822 113.438 12.8819 113.139 12.8819C112.739 12.8819 112.24 12.6822 112.04 12.3826H111.84L110.143 14.2799L108.445 12.3826L105.45 14.3797L105.549 14.5795L106.348 14.0802L107.347 15.1786V21.4696L106.049 22.4682L106.248 22.6679L106.848 22.1686L109.244 24.1658L112.34 22.0688L112.24 21.8691L111.341 22.3684L110.143 21.3698V14.3797C110.642 14.879 111.241 15.3783 111.94 15.3783C113.338 15.4782 114.137 14.0802 114.237 12.4825ZM126.22 22.0688L122.825 24.3655L118.231 17.3755L121.527 12.2827H121.726C122.126 12.6822 122.725 13.0816 123.424 13.0816C124.123 13.0816 124.622 12.6822 124.922 12.2827H125.122C125.022 14.2799 123.624 15.4782 122.625 15.4782C121.627 15.4782 121.127 14.9789 120.528 14.6793L120.229 15.1786L125.221 22.5681L126.22 21.9689V22.0688ZM115.236 21.5695L113.938 22.5681L114.137 22.7678L114.736 22.2685L116.933 24.2656L119.929 22.2685L119.729 22.0688L118.93 22.5681L117.932 21.5695V6.19142H117.832L114.237 8.588V8.78772C114.637 8.98743 115.236 9.08729 115.236 10.2856V21.5695ZM142.796 8.28843C142.796 6.29128 140.899 5.79199 139.401 5.79199V6.09156C140.3 6.09156 140.999 6.39114 140.999 7.09014C140.999 7.48957 140.699 8.08872 139.801 8.08872C139.102 8.08872 137.604 7.68929 136.505 7.28986C135.207 6.89043 134.009 6.491 133.01 6.491C131.013 6.491 129.615 7.98886 129.615 9.68644C129.615 11.1843 130.714 11.6836 131.113 11.8833L131.213 11.6836C130.913 11.4839 130.614 11.2842 130.614 10.685C130.614 10.2856 131.013 9.58658 132.012 9.58658C132.91 9.58658 134.109 9.98601 135.706 10.4853C137.104 10.8847 138.602 11.1843 139.401 11.2842V14.3797L137.903 15.6779V15.7778L139.401 17.0759V21.3698C138.602 21.8691 137.704 21.9689 136.905 21.9689C135.407 21.9689 134.109 21.5695 133.01 20.3712L137.104 18.374V11.384L132.112 13.5809C132.611 12.2827 133.709 11.384 134.708 10.685L134.608 10.4853C131.612 11.2842 128.916 13.9803 128.916 17.3755C128.916 21.3698 132.211 24.3655 135.906 24.3655C139.9 24.3655 142.497 21.1701 142.497 17.8748H142.297C141.698 19.1729 140.799 20.3712 139.701 20.9703V16.8762L141.298 15.578V15.4782L139.801 14.18V11.1843C141.298 11.1843 142.796 10.1857 142.796 8.28843ZM134.109 19.2728L132.91 19.8719C132.211 18.9732 131.812 17.7749 131.812 16.0773C131.812 15.3783 131.912 14.5795 132.112 13.9803L134.209 13.0816L134.109 19.2728ZM146.291 7.28986H146.192L144.194 8.98743V9.08729L145.892 10.9846H146.092L148.089 9.28701V9.18715L146.291 7.28986ZM149.287 22.0688L148.488 22.5681L147.49 21.5695V14.6793L148.488 13.9803L148.289 13.7806L147.59 14.3797L145.792 12.2827L142.896 14.2799L143.096 14.5795L143.795 14.0802L144.694 15.1786V21.6693L143.396 22.6679L143.495 22.8676L144.194 22.3684L146.391 24.3655L149.387 22.3684L149.287 22.0688ZM165.963 21.9689L165.264 22.4682L164.166 21.4696V14.6793L165.164 13.8805L164.965 13.6807L164.166 14.3797L161.869 12.2827L158.873 14.3797L156.577 12.2827L153.781 14.3797L151.983 12.2827L149.087 14.2799L149.187 14.5795L149.886 14.0802L150.885 15.1786V21.6693L150.086 22.4682L152.383 24.3655L154.58 22.3684L153.681 21.4696V14.6793L154.58 14.0802L156.077 15.4782V21.4696L155.279 22.2685L157.575 24.1658L159.772 22.1686L158.873 21.2699V14.6793L159.672 14.18L161.27 15.578V21.5695L160.571 22.2685L162.868 24.3655L165.963 22.2685V21.9689ZM174.651 20.4711L172.154 22.3684L169.658 20.3712V19.1729L174.351 15.9775V15.8776L171.955 12.2827L166.762 15.0787V21.8691L170.257 24.3655L174.751 20.7706L174.651 20.4711ZM169.658 18.7735V13.8805L169.858 13.7806L172.055 17.2756L169.658 18.7735ZM183.738 17.8748L181.841 16.3769C183.139 15.2785 183.638 13.7806 183.638 12.782V12.1829H183.438C183.239 12.6822 182.839 13.1815 182.04 13.1815C181.242 13.1815 180.742 12.782 180.243 12.1829L175.749 14.6793V18.2742L177.447 19.5723C175.749 21.0702 175.45 22.0688 175.45 22.8676C175.45 23.8662 175.949 24.5652 176.748 24.8648L176.848 24.6651C176.648 24.4654 176.448 24.3655 176.448 23.8662C176.448 23.5666 176.848 23.0674 177.647 23.0674C178.645 23.0674 179.244 23.7664 179.544 24.0659L183.838 21.4696V17.8748H183.738ZM182.64 14.879C181.941 16.0773 180.443 17.2756 179.544 17.8748L178.446 16.976V13.481C178.845 14.4796 179.943 15.2785 181.042 15.2785C181.741 15.2785 182.14 15.1786 182.64 14.879ZM180.942 22.8676C180.443 21.7692 179.244 20.9703 178.046 20.9703C177.747 20.9703 176.948 20.9703 176.149 21.4696C176.648 20.6708 177.946 19.2728 179.644 18.2742L180.842 19.2728L180.942 22.8676Z" fill="black"/>
</svg>
